HIERARCHY
ROOT Hips
{
	OFFSET 0.000000 71.427986 0.000000
	CHANNELS 6 Xposition Yposition Zposition Xrotation Yrotation Zrotation
	JOINT Pelvis
	{
		OFFSET 0.000000 0.000000 0.000000
		CHANNELS 3 Xrotation Yrotation Zrotation
		JOINT LeftUpLeg
		{
			OFFSET 6.797100 -2.508499 -1.318700
			CHANNELS 3 Xrotation Yrotation Zrotation
			JOINT LeftLeg
			{
				OFFSET 0.069008 -29.241863 0.690200
				CHANNELS 3 Xrotation Yrotation Zrotation
				JOINT LeftFoot
				{
					OFFSET -0.069008 -29.568123 -0.266800
					CHANNELS 3 Xrotation Yrotation Zrotation
					JOINT LeftToeBase
					{
						OFFSET 3.145500 -8.631000 16.059900
						CHANNELS 3 Xrotation Yrotation Zrotation
						End Site
						{
							OFFSET 0.000000 18.501587 0.000000
						}
					}
				}
			}
			JOINT Left_ShortSleeve
			{
				OFFSET 0.265923 -10.480953 1.153800
				CHANNELS 3 Xrotation Yrotation Zrotation
				End Site
				{
					OFFSET 1.725763 19.823879 0.000000
				}
			}
		}
		JOINT RightUpLeg
		{
			OFFSET -6.797100 -2.508499 -1.318700
			CHANNELS 3 Xrotation Yrotation Zrotation
			JOINT RightLeg
			{
				OFFSET -0.082453 -29.241932 0.688000
				CHANNELS 3 Xrotation Yrotation Zrotation
				JOINT RightFoot
				{
					OFFSET 0.082453 -29.568058 -0.264600
					CHANNELS 3 Xrotation Yrotation Zrotation
					JOINT RightToeBase
					{
						OFFSET -3.115300 -8.682800 16.113400
						CHANNELS 3 Xrotation Yrotation Zrotation
						End Site
						{
							OFFSET 0.000000 18.567114 0.000000
						}
					}
				}
			}
			JOINT Right_ShortSleeve
			{
				OFFSET -0.265923 -10.480953 1.153800
				CHANNELS 3 Xrotation Yrotation Zrotation
				End Site
				{
					OFFSET -1.725766 19.823910 0.000000
				}
			}
		}
	}
	JOINT Spine
	{
		OFFSET 0.000000 13.368103 0.470500
		CHANNELS 3 Xrotation Yrotation Zrotation
		JOINT Spine1
		{
			OFFSET 0.147000 13.837402 0.538800
			CHANNELS 3 Xrotation Yrotation Zrotation
			JOINT Spine2
			{
				OFFSET 0.168000 16.242897 -1.435500
				CHANNELS 3 Xrotation Yrotation Zrotation
				JOINT Neck
				{
					OFFSET 0.217200 18.631500 -1.679100
					CHANNELS 3 Xrotation Yrotation Zrotation
					JOINT Head
					{
						OFFSET 0.000000 6.599396 1.385900
						CHANNELS 3 Xrotation Yrotation Zrotation
						JOINT Hat
						{
							OFFSET -0.532200 27.220596 -10.096100
							CHANNELS 3 Xrotation Yrotation Zrotation
							End Site
							{
								OFFSET 0.000000 22.029861 0.000000
							}
						}
						JOINT HairD
						{
							OFFSET -10.777400 17.437393 -1.325900
							CHANNELS 3 Xrotation Yrotation Zrotation
							JOINT HairD1
							{
								OFFSET -3.290299 -11.051193 1.062200
								CHANNELS 3 Xrotation Yrotation Zrotation
								End Site
								{
									OFFSET 0.000000 11.579437 0.000000
								}
							}
						}
						JOINT HairB
						{
							OFFSET -10.777400 17.437393 1.467900
							CHANNELS 3 Xrotation Yrotation Zrotation
							JOINT HairB1
							{
								OFFSET -1.561200 -12.956299 3.590200
								CHANNELS 3 Xrotation Yrotation Zrotation
								End Site
								{
									OFFSET 0.000000 13.534866 0.000000
								}
							}
						}
						JOINT HairA
						{
							OFFSET 9.713100 17.437393 1.467900
							CHANNELS 3 Xrotation Yrotation Zrotation
							JOINT HairA1
							{
								OFFSET 1.561200 -12.956299 3.590200
								CHANNELS 3 Xrotation Yrotation Zrotation
								End Site
								{
									OFFSET 0.000000 13.534866 0.000000
								}
							}
						}
						JOINT HairC
						{
							OFFSET 9.713100 17.437393 -1.325900
							CHANNELS 3 Xrotation Yrotation Zrotation
							JOINT HairC1
							{
								OFFSET 3.290300 -11.051193 1.062200
								CHANNELS 3 Xrotation Yrotation Zrotation
								End Site
								{
									OFFSET 0.000000 11.579437 0.000000
								}
							}
						}
					}
				}
				JOINT LeftShoulder
				{
					OFFSET 5.101800 15.108002 -2.763700
					CHANNELS 3 Xrotation Yrotation Zrotation
					JOINT LeftArm
					{
						OFFSET 9.825497 2.506317 -1.597400
						CHANNELS 3 Xrotation Yrotation Zrotation
						JOINT LeftForeArm
						{
							OFFSET 21.966244 0.000000 0.000000
							CHANNELS 3 Xrotation Yrotation Zrotation
							JOINT LeftHand
							{
								OFFSET 33.879036 0.000000 0.000000
								CHANNELS 3 Xrotation Yrotation Zrotation
								JOINT LeftHandThumb1
								{
									OFFSET 6.715286 -2.359680 3.363841
									CHANNELS 3 Xrotation Yrotation Zrotation
									JOINT LeftHandThumb2
									{
										OFFSET 2.507072 -1.447464 1.447461
										CHANNELS 3 Xrotation Yrotation Zrotation
										JOINT LeftHandThumb3
										{
											OFFSET 2.898338 -1.673355 1.673357
											CHANNELS 3 Xrotation Yrotation Zrotation
											End Site
											{
												OFFSET -0.295959 3.727692 -0.131651
											}
										}
									}
								}
								JOINT LeftHandIndex1
								{
									OFFSET 14.190811 -0.254547 3.840278
									CHANNELS 3 Xrotation Yrotation Zrotation
									JOINT LeftHandIndex2
									{
										OFFSET 3.551727 0.000000 -0.000000
										CHANNELS 3 Xrotation Yrotation Zrotation
										JOINT LeftHandIndex3
										{
											OFFSET 2.894196 0.000000 0.000000
											CHANNELS 3 Xrotation Yrotation Zrotation
											End Site
											{
												OFFSET -1.000603 2.690872 0.366626
											}
										}
									}
								}
								JOINT LeftHandMiddle1
								{
									OFFSET 13.776489 0.000000 0.000000
									CHANNELS 3 Xrotation Yrotation Zrotation
									JOINT LeftHandMiddle2
									{
										OFFSET 3.438232 0.000000 0.000000
										CHANNELS 3 Xrotation Yrotation Zrotation
										JOINT LeftHandMiddle3
										{
											OFFSET 3.691551 0.000000 0.000000
											CHANNELS 3 Xrotation Yrotation Zrotation
											End Site
											{
												OFFSET -1.082298 3.499527 0.457670
											}
										}
									}
								}
								JOINT LeftHandRing1
								{
									OFFSET 13.966164 -0.268127 -3.067488
									CHANNELS 3 Xrotation Yrotation Zrotation
									JOINT LeftHandRing2
									{
										OFFSET 3.162567 0.000000 0.000000
										CHANNELS 3 Xrotation Yrotation Zrotation
										JOINT LeftHandRing3
										{
											OFFSET 3.324348 0.000000 0.000000
											CHANNELS 3 Xrotation Yrotation Zrotation
											End Site
											{
												OFFSET -0.861900 3.184998 0.405154
											}
										}
									}
								}
								JOINT LeftHandPinky1
								{
									OFFSET 13.131393 -0.168503 -5.746925
									CHANNELS 3 Xrotation Yrotation Zrotation
									JOINT LeftHandPinky2
									{
										OFFSET 2.849182 0.000000 0.000000
										CHANNELS 3 Xrotation Yrotation Zrotation
										JOINT LeftHandPinky3
										{
											OFFSET 2.805038 0.000000 0.000000
											CHANNELS 3 Xrotation Yrotation Zrotation
											End Site
											{
												OFFSET -0.882500 2.642609 0.325652
											}
										}
									}
								}
							}
							JOINT Left_Sleeve
							{
								OFFSET 6.592125 -0.646545 0.805568
								CHANNELS 3 Xrotation Yrotation Zrotation
								End Site
								{
									OFFSET -0.000179 20.275787 -0.000000
								}
							}
						}
					}
				}
				JOINT RightShoulder
				{
					OFFSET -5.731700 15.108002 -2.763700
					CHANNELS 3 Xrotation Yrotation Zrotation
					JOINT RightArm
					{
						OFFSET -9.825497 2.506317 -1.597400
						CHANNELS 3 Xrotation Yrotation Zrotation
						JOINT RightForeArm
						{
							OFFSET -21.966242 0.000000 0.000000
							CHANNELS 3 Xrotation Yrotation Zrotation
							JOINT RightHand
							{
								OFFSET -33.879032 0.000000 0.000000
								CHANNELS 3 Xrotation Yrotation Zrotation
								JOINT RightHandThumb1
								{
									OFFSET -6.715286 -2.359680 3.363841
									CHANNELS 3 Xrotation Yrotation Zrotation
									JOINT RightHandThumb2
									{
										OFFSET -2.507072 -1.447464 1.447461
										CHANNELS 3 Xrotation Yrotation Zrotation
										JOINT RightHandThumb3
										{
											OFFSET -2.898338 -1.673355 1.673357
											CHANNELS 3 Xrotation Yrotation Zrotation
											End Site
											{
												OFFSET 0.295959 3.727692 -0.131651
											}
										}
									}
								}
								JOINT RightHandIndex1
								{
									OFFSET -14.190811 -0.254547 3.840278
									CHANNELS 3 Xrotation Yrotation Zrotation
									JOINT RightHandIndex2
									{
										OFFSET -3.551727 0.000000 -0.000000
										CHANNELS 3 Xrotation Yrotation Zrotation
										JOINT RightHandIndex3
										{
											OFFSET -2.894196 0.000000 0.000000
											CHANNELS 3 Xrotation Yrotation Zrotation
											End Site
											{
												OFFSET 1.000603 2.690872 0.366626
											}
										}
									}
								}
								JOINT RightHandMiddle1
								{
									OFFSET -13.776489 0.000000 0.000000
									CHANNELS 3 Xrotation Yrotation Zrotation
									JOINT RightHandMiddle2
									{
										OFFSET -3.438232 0.000000 0.000000
										CHANNELS 3 Xrotation Yrotation Zrotation
										JOINT RightHandMiddle3
										{
											OFFSET -3.691551 0.000000 0.000000
											CHANNELS 3 Xrotation Yrotation Zrotation
											End Site
											{
												OFFSET 1.082298 3.499527 0.457670
											}
										}
									}
								}
								JOINT RightHandRing1
								{
									OFFSET -13.966164 -0.268127 -3.067488
									CHANNELS 3 Xrotation Yrotation Zrotation
									JOINT RightHandRing2
									{
										OFFSET -3.162567 0.000000 0.000000
										CHANNELS 3 Xrotation Yrotation Zrotation
										JOINT RightHandRing3
										{
											OFFSET -3.324348 0.000000 0.000000
											CHANNELS 3 Xrotation Yrotation Zrotation
											End Site
											{
												OFFSET 0.861900 3.184998 0.405154
											}
										}
									}
								}
								JOINT RightHandPinky1
								{
									OFFSET -13.131393 -0.168503 -5.746925
									CHANNELS 3 Xrotation Yrotation Zrotation
									JOINT RightHandPinky2
									{
										OFFSET -2.849182 0.000000 0.000000
										CHANNELS 3 Xrotation Yrotation Zrotation
										JOINT RightHandPinky3
										{
											OFFSET -2.805038 0.000000 0.000000
											CHANNELS 3 Xrotation Yrotation Zrotation
											End Site
											{
												OFFSET 0.882500 2.642609 0.325652
											}
										}
									}
								}
							}
							JOINT Right_Sleeve
							{
								OFFSET -6.592125 -0.646545 0.805568
								CHANNELS 3 Xrotation Yrotation Zrotation
								End Site
								{
									OFFSET 0.000179 20.275787 -0.000000
								}
							}
						}
					}
				}
				JOINT Bind_Right_JacketString
				{
					OFFSET -3.534800 11.969597 7.200700
					CHANNELS 3 Xrotation Yrotation Zrotation
					JOINT Bind_Right_JacketString1
					{
						OFFSET -0.319900 -6.102600 2.794100
						CHANNELS 3 Xrotation Yrotation Zrotation
						End Site
						{
							OFFSET 0.000000 6.719452 0.000000
						}
					}
				}
				JOINT Bind_Left_JacketString
				{
					OFFSET 2.904800 11.969597 7.200700
					CHANNELS 3 Xrotation Yrotation Zrotation
					JOINT Bind_Left_JacketString1
					{
						OFFSET 0.364800 -5.904503 3.186800
						CHANNELS 3 Xrotation Yrotation Zrotation
						End Site
						{
							OFFSET 0.000000 6.719513 0.000000
						}
					}
				}
				JOINT HairE
				{
					OFFSET 5.915200 17.612701 -11.592200
					CHANNELS 3 Xrotation Yrotation Zrotation
					JOINT HairE1
					{
						OFFSET 0.289200 -7.171898 -1.284500
						CHANNELS 3 Xrotation Yrotation Zrotation
						End Site
						{
							OFFSET 0.000000 7.291756 0.000000
						}
					}
				}
				JOINT HairF
				{
					OFFSET -0.864800 17.612701 -11.592200
					CHANNELS 3 Xrotation Yrotation Zrotation
					JOINT HairF1
					{
						OFFSET 0.000000 -14.087097 -2.127501
						CHANNELS 3 Xrotation Yrotation Zrotation
						End Site
						{
							OFFSET 0.000000 14.246841 0.000000
						}
					}
				}
				JOINT HairG
				{
					OFFSET -8.087700 17.612701 -11.592200
					CHANNELS 3 Xrotation Yrotation Zrotation
					JOINT HairG1
					{
						OFFSET -0.293600 -6.081398 -0.910100
						CHANNELS 3 Xrotation Yrotation Zrotation
						End Site
						{
							OFFSET 0.000000 6.156120 0.000000
						}
					}
				}
			}
		}
	}
	JOINT Pouch
	{
		OFFSET 0.000000 4.394501 10.847300
		CHANNELS 3 Xrotation Yrotation Zrotation
		End Site
		{
			OFFSET 0.000000 21.880577 0.000000
		}
	}
	JOINT Bag
	{
		OFFSET -13.229000 4.813004 -0.593300
		CHANNELS 3 Xrotation Yrotation Zrotation
		End Site
		{
			OFFSET 0.000000 21.880577 0.000000
		}
	}
	JOINT OccupyGuyFacialAnim_Joint
	{
		OFFSET 1.000000 -70.206398 -1.655000
		CHANNELS 3 Xrotation Yrotation Zrotation
		End Site
		{
			OFFSET 0.000000 21.880577 0.000000
		}
	}
}
MOTION
Frames: 4
Frame Time: 0.033333
1.472111 69.033203 0.993681 -13.566503 11.619761 4.697012 -0.000000 0.000000 0.000000 -15.552604 43.983713 22.688541 23.491713 3.234565 -0.672954 -1.666990 -1.393423 -2.309815 -0.000000 0.000002 0.000000 -0.000000 0.000000 -0.000000 7.321173 4.942005 -8.069530 30.447047 1.889583 1.609033 -22.768813 -17.575122 4.613348 -0.000000 -0.000000 0.000000 0.000000 -0.000002 -0.000001 8.505924 -0.429819 0.326077 16.351775 -0.218827 -0.605492 16.350761 -0.292081 -0.573398 0.247028 7.526630 0.718552 -7.309774 22.053880 10.501838 0.000000 -0.000000 -0.000003 0.000000 -0.000000 -0.000003 0.000000 -0.000000 -0.000003 0.000000 -0.000000 -0.000002 -0.000000 -0.000003 -0.000000 0.000000 -0.000000 -0.000002 -0.000000 -0.000003 -0.000000 0.000000 -0.000000 -0.000003 0.000000 -0.000000 -0.000003 -37.571071 -4.822509 1.545812 -42.834910 -6.286937 -62.785250 0.000009 -63.275057 0.000004 -118.292374 2.201041 31.819280 4.709208 9.560366 3.111994 21.573637 2.081413 9.019692 0.000001 -0.000000 0.000002 -0.152934 4.018504 -36.811684 2.903352 5.056515 -59.705573 -0.000001 0.000001 -0.000000 0.712417 5.786304 -53.418507 3.410617 5.319432 -65.310829 0.000003 0.000000 0.000002 0.235999 5.928620 -61.381524 4.033788 5.562629 -71.875781 -0.000001 0.000001 -0.000002 -6.242304 4.754765 -72.948449 3.277112 5.256265 -63.862364 -0.000000 -0.000001 0.000003 -0.000001 0.000000 0.000001 -41.205876 -8.821025 -10.043603 -47.747308 58.272879 101.546328 0.000367 97.377331 -0.000407 -52.282574 -16.913925 -28.729056 6.793760 -2.460688 10.872470 21.956925 -16.082614 -17.616154 -0.000000 0.000001 -0.000000 -0.951474 1.796437 12.515710 0.729195 -2.504004 32.467878 -0.000002 0.000000 -0.000003 3.246204 -7.017321 52.624477 6.316098 -4.352289 110.888592 0.000001 -0.000000 0.000001 -3.626997 -2.466729 57.346719 5.423629 -4.593818 99.482696 -0.000001 -0.000001 -0.000002 -4.281227 -3.249600 65.139378 4.040834 -4.616296 82.386691 -0.000000 -0.000000 -0.000001 0.000006 -0.000001 0.000004 -0.000001 -0.000001 0.000000 -0.000001 0.000000 0.000000 -0.000001 -0.000001 0.000000 -0.000001 -0.000001 0.000000 -0.000001 -0.000001 0.000000 -0.000001 0.000000 -0.000000 -0.000001 -0.000001 0.000000 -0.000001 -0.000001 0.000000 -0.000001 -0.000001 0.000000 -0.000001 0.000000 -0.000000 -0.000000 0.000000 0.000000 -0.000000 0.000000 0.000000 -0.000000 0.000000 0.000000 
1.066979 69.017799 1.089028 -13.503003 11.574260 4.515446 -0.000000 0.000001 -0.000000 -16.019493 44.016389 23.331733 23.163282 2.788282 -0.564881 -1.182484 -0.895322 -2.561855 0.000000 0.000000 0.000000 -0.000001 -0.000003 -0.000002 7.062920 4.943086 -7.382547 30.747842 1.431481 1.494310 -22.979019 -17.550337 4.412380 -0.000000 0.000000 0.000000 -0.000000 -0.000002 -0.000000 8.365281 -0.323106 0.185596 16.370334 -0.192107 -0.648086 16.369629 -0.263664 -0.618078 0.281923 7.514660 0.752726 -7.231889 21.923196 10.926408 -0.000001 -0.000001 0.000000 -0.000001 -0.000001 0.000000 -0.000001 -0.000001 0.000001 -0.000001 -0.000001 -0.000000 0.000001 -0.000000 -0.000001 -0.000001 -0.000001 -0.000000 0.000001 -0.000000 -0.000001 -0.000001 -0.000001 0.000000 -0.000001 -0.000001 0.000000 -37.571071 -4.822513 1.545819 -42.531830 -6.395098 -62.523483 -0.000020 -63.836553 -0.000021 -118.492799 1.929524 32.104293 4.709204 9.560366 3.111994 21.293603 1.352925 8.988094 -0.000001 0.000001 0.000000 -0.164142 4.002912 -36.803245 2.914638 5.063069 -59.833693 -0.000000 -0.000000 -0.000000 0.654755 5.738663 -53.314691 3.406398 5.317482 -65.265299 -0.000000 0.000001 -0.000003 0.181671 5.897257 -61.353950 4.037582 5.563863 -71.915069 -0.000002 0.000001 -0.000002 -6.259789 4.729321 -72.849609 3.278093 5.256741 -63.872972 -0.000000 0.000000 -0.000002 -0.000001 0.000000 -0.000000 -41.196839 -8.812467 -10.021143 -47.565704 58.277278 101.449770 -0.000527 97.689669 0.000565 -52.340532 -17.003635 -28.865465 7.061690 -2.875995 10.893568 21.730544 -16.411717 -17.535179 -0.000002 0.000002 0.000003 -0.945746 1.774661 12.504186 0.734738 -2.512659 32.594192 0.000001 0.000000 0.000000 3.288560 -7.053527 52.519684 6.312632 -4.353621 110.842919 0.000001 -0.000001 0.000001 -3.576549 -2.494993 57.316004 5.426701 -4.593302 99.521355 0.000001 -0.000001 -0.000003 -4.269748 -3.239904 65.038960 4.041587 -4.616413 82.396171 0.000001 0.000001 0.000002 -0.000002 -0.000000 0.000001 0.000001 0.000000 -0.000000 0.000001 0.000001 -0.000001 0.000001 0.000000 -0.000000 0.000001 0.000000 -0.000000 0.000001 0.000000 -0.000000 0.000001 0.000001 -0.000001 0.000001 0.000000 -0.000000 0.000001 0.000000 -0.000000 0.000001 0.000000 -0.000000 0.000001 0.000001 -0.000001 -0.000000 0.000001 -0.000000 -0.000000 0.000001 -0.000000 -0.000000 0.000001 -0.000000 
0.715911 69.005974 1.162198 -13.444041 11.524198 4.357695 0.000001 0.000000 0.000000 -16.446862 44.127660 23.942361 22.835059 2.271272 -0.537096 -0.735787 -0.402156 -2.724644 -0.000000 0.000000 0.000000 -0.000001 0.000003 0.000001 6.837879 5.052664 -6.715425 31.001973 0.967627 1.311460 -23.134556 -17.520803 4.208020 0.000000 -0.000000 0.000000 -0.000001 0.000001 -0.000001 8.235612 -0.229491 0.071058 16.386256 -0.168315 -0.684401 16.385817 -0.238381 -0.656233 0.312707 7.503256 0.783081 -7.151682 21.806757 11.284613 -0.000000 0.000002 -0.000002 -0.000000 0.000002 -0.000002 -0.000000 0.000002 -0.000001 -0.000000 0.000002 -0.000002 -0.000002 -0.000002 -0.000000 -0.000000 0.000002 -0.000002 -0.000002 -0.000002 -0.000000 -0.000000 0.000002 -0.000002 -0.000000 0.000002 -0.000002 -37.571074 -4.822520 1.545821 -42.256178 -6.518733 -62.286763 0.000024 -64.289060 0.000016 -118.696134 1.688008 32.321114 4.709202 9.560363 3.111993 20.680426 0.007017 8.719242 -0.000001 -0.000000 0.000002 -0.173505 3.990173 -36.800386 2.913519 5.062412 -59.820873 -0.000000 0.000001 -0.000004 0.534353 5.634559 -53.026577 3.404804 5.316764 -65.248148 -0.000000 0.000001 0.000001 0.061332 5.822181 -61.215611 4.041478 5.565133 -71.955298 -0.000001 0.000001 0.000002 -6.399223 4.639451 -72.624193 3.279487 5.257425 -63.888401 -0.000001 0.000000 -0.000001 -0.000000 -0.000000 -0.000000 -41.188636 -8.796932 -9.999616 -47.387911 58.281205 101.353443 0.000139 97.952877 -0.000091 -52.387005 -17.082100 -28.988112 7.614249 -3.731781 10.948760 21.444829 -17.071315 -17.547413 0.000002 -0.000001 -0.000001 -0.941228 1.755889 12.498747 0.734106 -2.511722 32.580330 -0.000002 0.000000 0.000000 3.366892 -7.125253 52.228858 6.311292 -4.354107 110.825495 0.000000 -0.000000 0.000003 -3.469716 -2.543987 57.171709 5.429830 -4.592781 99.560246 -0.000001 -0.000000 -0.000003 -4.146987 -3.262872 64.803981 4.042109 -4.616466 82.402646 -0.000000 0.000000 0.000001 0.000003 -0.000000 0.000001 -0.000000 -0.000000 0.000000 -0.000000 0.000000 -0.000001 -0.000000 -0.000000 0.000000 -0.000000 -0.000000 0.000000 -0.000000 -0.000000 0.000000 -0.000000 0.000000 -0.000001 -0.000000 -0.000000 0.000000 -0.000000 -0.000000 0.000000 -0.000000 -0.000000 0.000000 -0.000000 0.000000 -0.000001 0.000001 0.000000 0.000000 0.000001 0.000000 0.000000 0.000001 0.000000 0.000000 
0.432527 68.997375 1.214675 -13.393715 11.476355 4.230087 -0.000000 0.000000 -0.000000 -16.839015 44.315749 24.490917 22.541453 1.737952 -0.551242 -0.354731 0.086261 -2.808125 -0.000000 0.000000 -0.000000 -0.000002 -0.000001 -0.000000 6.668719 5.295855 -6.106895 31.196121 0.474546 1.069992 -23.216255 -17.524334 4.194411 -0.000000 -0.000000 -0.000000 -0.000000 -0.000001 -0.000000 8.125439 -0.153078 -0.016587 16.398992 -0.148663 -0.713329 16.398780 -0.217493 -0.686668 0.337949 7.493324 0.808117 -7.078102 21.710532 11.567287 -0.000001 0.000002 0.000002 -0.000001 0.000002 0.000002 -0.000001 0.000002 0.000002 -0.000001 0.000002 -0.000000 -0.000001 -0.000000 -0.000000 -0.000001 0.000002 -0.000000 -0.000001 -0.000000 -0.000000 -0.000001 0.000002 0.000002 -0.000001 0.000002 0.000002 -37.571071 -4.822515 1.545820 -42.015902 -6.653740 -62.077021 0.000027 -64.631853 0.000015 -118.897474 1.479215 32.470347 4.709205 9.560366 3.111994 19.652515 -0.903877 7.632281 -0.000003 -0.000000 0.000000 -0.194614 3.961050 -36.788608 2.923667 5.068286 -59.935812 0.000001 0.000001 -0.000004 0.485848 5.589172 -52.855074 3.399464 5.314303 -65.190700 -0.000001 0.000000 0.000001 -0.035698 5.758753 -61.071112 4.045367 5.566411 -71.995276 -0.000001 0.000000 -0.000003 -6.531653 4.556549 -72.427667 3.281157 5.258252 -63.906610 0.000000 0.000000 0.000005 0.000002 -0.000001 -0.000000 -41.181956 -8.768808 -9.979762 -47.215489 58.281321 101.252630 0.000627 98.163998 -0.000661 -52.422139 -17.145783 -29.094417 8.266504 -4.738165 11.025063 21.888243 -17.775902 -18.490055 -0.000001 -0.000001 -0.000002 -0.930695 1.714084 12.481057 0.739029 -2.519370 32.692222 0.000000 0.000001 0.000000 3.390629 -7.150936 52.055761 6.306939 -4.355773 110.767985 0.000001 0.000000 0.000001 -3.385571 -2.578132 57.022688 5.432933 -4.592259 99.599075 0.000001 -0.000001 -0.000003 -4.029333 -3.288837 64.598106 4.042894 -4.616583 82.412209 -0.000001 0.000000 0.000001 0.000001 0.000001 0.000000 -0.000003 -0.000001 0.000000 -0.000003 -0.000001 0.000000 -0.000003 -0.000001 0.000000 -0.000003 -0.000001 0.000000 -0.000003 -0.000001 0.000000 -0.000003 -0.000001 0.000000 -0.000003 -0.000001 0.000000 -0.000003 -0.000001 0.000000 -0.000003 -0.000001 0.000000 -0.000003 -0.000001 0.000000 -0.000000 0.000000 -0.000000 -0.000000 0.000000 -0.000000 -0.000000 0.000000 -0.000000 
